<svg xmlns="http://www.w3.org/2000/svg" viewBox="0 0 2976.13 384.79"><defs><style>.cls-1{fill:#fff;}</style></defs><g id="Laag_2" data-name="Laag 2"><g id="Laag_1-2" data-name="Laag 1"><polygon class="cls-1" points="136.79 323.88 60.91 323.88 60.91 248 136.79 323.88"/><polygon class="cls-1" points="60.91 18.63 255.26 18.63 60.91 90.54 60.91 18.63"/><polygon class="cls-1" points="366.16 129.53 366.16 323.88 294.25 323.88 366.16 129.53"/><polygon class="cls-1" points="384.79 0 0 187.08 98.85 285.93 197.71 384.79 384.79 0"/><path class="cls-1" d="M595.14,243.59c15.82,8.11,40.12,16.21,65.19,16.21,27,0,41.28-11.19,41.28-28.17,0-16.2-12.34-25.46-43.59-36.64-43.21-15.05-71.37-39-71.37-76.77,0-44.37,37-78.31,98.37-78.31,29.32,0,50.93,6.17,66.36,13.11l-13.12,47.45a123.68,123.68,0,0,0-54.39-12.34c-25.46,0-37.81,11.57-37.81,25.07,0,16.59,14.66,23.92,48.22,36.65,45.91,17,67.51,40.89,67.51,77.54C761.79,271,728.23,308,656.86,308c-29.7,0-59-7.72-73.68-15.82Z"/><path class="cls-1" d="M882.54,61.51v54h42.05v43.2H882.54V227c0,22.76,5.4,33.17,23.15,33.17a96,96,0,0,0,17.36-1.54l.38,44.36c-7.71,3.09-21.6,5-38.19,5-18.9,0-34.72-6.56-44-16.2-10.8-11.19-16.2-29.32-16.2-55.94V158.72H800v-43.2h25.07V74.62Z"/><path class="cls-1" d="M977.83,177.63c0-27.78-.78-45.91-1.55-62.11h50.54l1.93,34.72h1.54c9.64-27.39,32.79-39,50.92-39,5.4,0,8.1,0,12.35.77v55.17a84.3,84.3,0,0,0-15.82-1.54c-21.6,0-36.26,11.57-40.12,29.7a69.32,69.32,0,0,0-1.16,13.12v95.67H977.83Z"/><path class="cls-1" d="M1246.71,304.16l-3.47-18.9h-1.16c-12.34,15-31.63,23.14-54,23.14-38.19,0-61-27.77-61-57.86,0-49,44-72.53,110.72-72.14v-2.7c0-10-5.4-24.31-34.34-24.31-19.28,0-39.73,6.56-52.08,14.28l-10.8-37.81c13.12-7.33,39-16.59,73.3-16.59,62.88,0,82.94,37,82.94,81.4v65.58c0,18.13.77,35.49,2.7,45.91Zm-6.94-89.11c-30.86-.39-54.78,6.94-54.78,29.7,0,15.05,10,22.38,23.14,22.38,14.66,0,26.62-9.65,30.48-21.61a42.1,42.1,0,0,0,1.16-10Z"/><path class="cls-1" d="M1424.94,61.51v54h42v43.2h-42V227c0,22.76,5.4,33.17,23.15,33.17a96,96,0,0,0,17.36-1.54l.38,44.36c-7.71,3.09-21.6,5-38.19,5-18.9,0-34.72-6.56-44-16.2-10.8-11.19-16.2-29.32-16.2-55.94V158.72h-25.07v-43.2h25.07V74.62Z"/><path class="cls-1" d="M1563.43,228.55c1.93,24.3,25.85,35.88,53.24,35.88,20.06,0,36.26-2.7,52.08-7.72l7.71,39.73c-19.28,7.72-42.82,11.58-68.28,11.58-64,0-100.68-37-100.68-96.06,0-47.84,29.7-100.69,95.28-100.69,61,0,84.1,47.45,84.1,94.13a139.45,139.45,0,0,1-1.93,23.15Zm69.06-40.12c0-14.28-6.18-38.19-33.18-38.19-24.69,0-34.72,22.37-36.26,38.19Z"/><path class="cls-1" d="M1921.43,115.52c-.77,12-1.54,27.77-1.54,55.93V276.77c0,36.26-7.33,66-28.55,84.87-20.83,17.75-49,23.15-76.77,23.15-24.69,0-50.92-5-67.89-14.66l11.57-44.37c12,6.95,32.79,14.28,54.78,14.28,27.78,0,49-15.05,49-49.77V277.93h-.77c-11.19,15.81-29.32,24.69-50.92,24.69-46.68,0-79.86-37.81-79.86-92.2,0-60.57,39.35-99.15,85.65-99.15,25.84,0,42,11.19,51.69,26.62h.77l1.93-22.37Zm-60.18,76.77a46,46,0,0,0-1.16-10.81c-4.24-15.43-15.43-25.84-31.63-25.84-21.22,0-38.58,19.29-38.58,53.62,0,28.16,13.89,50.15,38.58,50.15,15,0,27-10,30.86-23.92,1.55-4.24,1.93-10.41,1.93-15.43Z"/><path class="cls-1" d="M2031.38,228.55c1.92,24.3,25.84,35.88,53.23,35.88,20.06,0,36.26-2.7,52.08-7.72l7.72,39.73c-19.29,7.72-42.82,11.58-68.29,11.58-64,0-100.68-37-100.68-96.06,0-47.84,29.7-100.69,95.28-100.69,61,0,84.1,47.45,84.1,94.13a139.45,139.45,0,0,1-1.93,23.15Zm69-40.12c0-14.28-6.17-38.19-33.18-38.19-24.69,0-34.72,22.37-36.26,38.19Z"/><path class="cls-1" d="M2316.46,304.16l-3.47-18.9h-1.16c-12.34,15-31.63,23.14-54,23.14-38.2,0-61-27.77-61-57.86,0-49,44-72.53,110.72-72.14v-2.7c0-10-5.4-24.31-34.33-24.31-19.29,0-39.74,6.56-52.08,14.28l-10.81-37.81c13.12-7.33,39-16.59,73.3-16.59,62.88,0,82.94,37,82.94,81.4v65.58c0,18.13.77,35.49,2.7,45.91Zm-6.94-89.11c-30.86-.39-54.78,6.94-54.78,29.7,0,15.05,10,22.38,23.14,22.38,14.66,0,26.62-9.65,30.48-21.61a42.1,42.1,0,0,0,1.16-10Z"/><path class="cls-1" d="M2430.65,304.16c.77-12.34,1.55-35.11,1.55-56.32V30.26h58.63V137.89h.77c11.19-16.2,30.87-26.62,57.1-26.62,45.13,0,78.31,37.42,77.92,95.29,0,67.9-43.2,101.84-86.41,101.84-22,0-43.21-8.1-56.71-30.47h-.77l-2.31,26.23Zm60.18-80.24a43,43,0,0,0,1.16,10.41c3.86,15.82,17.36,27.78,34.33,27.78,25.08,0,40.51-19.29,40.51-53.24,0-29.31-13.12-52.46-40.51-52.46-15.81,0-30.47,12-34.33,28.93a48.91,48.91,0,0,0-1.16,10.8Z"/><path class="cls-1" d="M2682.17,30.26h58.64v273.9h-58.64Z"/><path class="cls-1" d="M2852.68,228.55c1.93,24.3,25.85,35.88,53.24,35.88,20.06,0,36.26-2.7,52.08-7.72l7.72,39.73c-19.29,7.72-42.83,11.58-68.29,11.58-64,0-100.68-37-100.68-96.06,0-47.84,29.7-100.69,95.28-100.69,61,0,84.1,47.45,84.1,94.13a139.45,139.45,0,0,1-1.93,23.15Zm69.06-40.12c0-14.28-6.17-38.19-33.18-38.19-24.69,0-34.72,22.37-36.26,38.19Z"/></g></g></svg>