<?xml version="1.0" standalone="no"?>
<!DOCTYPE svg PUBLIC "-//W3C//DTD SVG 20010904//EN"
 "http://www.w3.org/TR/2001/REC-SVG-20010904/DTD/svg10.dtd">
<svg version="1.0" xmlns="http://www.w3.org/2000/svg"
 width="386.000000pt" height="386.000000pt" viewBox="0 0 386.000000 386.000000"
 preserveAspectRatio="xMidYMid meet">
<metadata>
Created by potrace 1.14, written by Peter Selinger 2001-2017
</metadata>
<g transform="translate(0.000000,386.000000) scale(0.100000,-0.100000)"
fill="#000000" stroke="none">
<path d="M3755 3806 c-50 -24 -180 -87 -290 -141 -110 -54 -272 -132 -360
-175 -88 -43 -259 -126 -380 -185 -121 -59 -283 -138 -360 -175 -77 -37 -230
-112 -340 -165 -110 -54 -263 -128 -340 -165 -77 -37 -243 -118 -370 -180
-126 -62 -293 -143 -370 -180 -77 -37 -248 -120 -380 -185 -132 -64 -311 -151
-397 -193 -87 -42 -158 -79 -158 -83 0 -4 135 -142 300 -307 l300 -301 0 -380
0 -381 381 0 381 0 305 -305 305 -305 45 93 c25 50 60 124 78 162 18 39 90
187 160 330 70 143 149 305 175 360 26 55 103 213 170 350 67 138 150 309 185
380 34 72 111 229 170 350 59 121 145 297 190 390 45 94 126 260 180 370 54
110 130 268 170 350 89 183 236 487 299 614 25 52 45 96 43 97 -1 2 -43 -16
-92 -40z"/>
<path d="M610 3303 l0 -361 48 17 c26 10 245 91 487 181 242 89 478 177 525
195 47 18 259 97 473 175 213 79 387 146 387 149 0 3 -432 6 -960 6 l-960 0 0
-362z"/>
<path d="M3625 2453 c-15 -43 -33 -91 -40 -108 -7 -16 -23 -59 -35 -95 -13
-36 -29 -78 -35 -95 -14 -33 -315 -844 -319 -860 -2 -5 -6 -17 -9 -25 -4 -8
-58 -157 -122 -330 -64 -173 -119 -318 -121 -322 -3 -4 158 -8 358 -8 l363 0
0 960 c0 528 -3 960 -6 960 -4 0 -19 -35 -34 -77z"/>
</g>
</svg>
